<?xml version="1.0" encoding="UTF-8" standalone="no"?>
<svg xmlns="http://www.w3.org/2000/svg" width="200" height="200" viewBox="0 0 200 200">
  <!-- Definitions for gradients and filters -->
  <defs>
    <radialGradient id="eyeGlow" cx="50%" cy="50%" r="50%" fx="50%" fy="50%">
      <stop offset="0%" style="stop-color:#ff3300;stop-opacity:1" />
      <stop offset="100%" style="stop-color:#990000;stop-opacity:0" />
    </radialGradient>
    
    <filter id="blur" x="-50%" y="-50%" width="200%" height="200%">
      <feGaussianBlur in="SourceGraphic" stdDeviation="3" />
    </filter>
    
    <linearGradient id="metalGradient" x1="0%" y1="0%" x2="100%" y2="100%">
      <stop offset="0%" style="stop-color:#666666;stop-opacity:1" />
      <stop offset="50%" style="stop-color:#999999;stop-opacity:1" />
      <stop offset="100%" style="stop-color:#333333;stop-opacity:1" />
    </linearGradient>
    
    <linearGradient id="scanlineGradient" x1="0%" y1="0%" x2="0%" y2="100%">
      <stop offset="0%" style="stop-color:#ff0000;stop-opacity:0" />
      <stop offset="50%" style="stop-color:#ff0000;stop-opacity:0.3" />
      <stop offset="100%" style="stop-color:#ff0000;stop-opacity:0" />
    </linearGradient>
  </defs>
  
  <!-- Background metal skull -->
  <circle cx="100" cy="100" r="90" fill="#111111" stroke="url(#metalGradient)" stroke-width="5" />
  
  <!-- Metal details in skull -->
  <path d="M60,70 Q80,30 100,70 Q120,30 140,70 Q150,90 140,120 Q120,150 100,130 Q80,150 60,120 Q50,90 60,70 Z" 
        fill="none" stroke="url(#metalGradient)" stroke-width="2" opacity="0.7" />
  
  <!-- Eye socket -->
  <ellipse cx="100" cy="90" rx="50" ry="35" fill="#000000" stroke="#444444" stroke-width="3" />
  
  <!-- Terminator red eye glow -->
  <circle cx="100" cy="90" r="25" fill="url(#eyeGlow)" />
  <circle cx="100" cy="90" r="12" fill="#ff0000" filter="url(#blur)" />
  <circle cx="100" cy="90" r="8" fill="#ffffff" opacity="0.9" />
  
  <!-- Scanning effect (horizontal line) -->
  <rect id="scanline" x="50" y="89" width="100" height="2" fill="url(#scanlineGradient)" opacity="0.8">
    <animate attributeName="y" from="75" to="105" dur="2s" repeatCount="indefinite" />
  </rect>
  
  <!-- Tech details -->
  <g opacity="0.7" stroke="#444444" stroke-width="1">
    <line x1="40" y1="80" x2="60" y2="90" />
    <line x1="40" y1="100" x2="60" y2="90" />
    <line x1="160" y1="80" x2="140" y2="90" />
    <line x1="160" y1="100" x2="140" y2="90" />
    <circle cx="60" cy="90" r="3" fill="#333333" />
    <circle cx="140" cy="90" r="3" fill="#333333" />
  </g>
  
  <!-- Terminator text -->
  <text x="100" y="175" fill="#ff0000" font-family="Arial" font-size="14" font-weight="bold" text-anchor="middle">BAIL ENFORCEMENT</text>
  <text x="100" y="190" fill="#ff0000" font-family="Arial" font-size="12" text-anchor="middle">HUMAN TERMINATION UNIT</text>
  
  <!-- Target reticle around eye -->
  <g stroke="#ff0000" fill="none" opacity="0.7">
    <circle cx="100" cy="90" r="30" stroke-width="1" />
    <circle cx="100" cy="90" r="40" stroke-width="0.5" stroke-dasharray="3,3" />
    
    <line x1="60" y1="90" x2="70" y2="90" stroke-width="1" />
    <line x1="130" y1="90" x2="140" y2="90" stroke-width="1" />
    <line x1="100" y1="50" x2="100" y2="60" stroke-width="1" />
    <line x1="100" y1="120" x2="100" y2="130" stroke-width="1" />
  </g>
  
  <!-- Corner brackets -->
  <path d="M45,45 L45,55 L55,55" stroke="#ff0000" fill="none" stroke-width="2" />
  <path d="M155,45 L155,55 L145,55" stroke="#ff0000" fill="none" stroke-width="2" />
  <path d="M45,155 L45,145 L55,145" stroke="#ff0000" fill="none" stroke-width="2" />
  <path d="M155,155 L155,145 L145,145" stroke="#ff0000" fill="none" stroke-width="2" />
</svg>